<?xml version="1.0" encoding="utf-8"?>
<!-- Generator: Adobe Illustrator 21.1.0, SVG Export Plug-In . SVG Version: 6.00 Build 0)  -->
<svg version="1.1" id="Layer_1" xmlns="http://www.w3.org/2000/svg" xmlns:xlink="http://www.w3.org/1999/xlink" x="0px" y="0px"
	 viewBox="0 0 1162 949" style="enable-background:new 0 0 1162 949;" xml:space="preserve">
<style type="text/css">
	.st0{fill:#E0C658;}
	.st1{fill:#F7F79A;}
	.st2{fill:#D18C4F;}
	.st3{fill:#8C5819;}
	.st4{fill:#B9E2FC;}
	.st5{clip-path:url(#SVGID_2_);}
	.st6{fill:#5B6D1D;}
	.st7{fill:#97A55E;}
	.st8{fill:none;stroke:#FFFFFF;stroke-width:18;stroke-miterlimit:10;}
	.st9{fill:#FFFFFF;}
	.st10{fill:#77892E;}
	.st11{fill:#6D6D6D;}
	.st12{fill:#767777;}
	.st13{fill:#383838;}
	.st14{fill:#C2E3FF;}
	.st15{fill:#DDDDDD;}
	.st16{fill:#9F9FA0;}
	.st17{fill:#AA6E1F;}
	.st18{clip-path:url(#SVGID_4_);}
	.st19{fill:none;stroke:#9DC9EA;stroke-miterlimit:10;}
</style>
<circle class="st0" cx="755.5" cy="837.5" r="398.5"/>
<circle class="st1" cx="398.5" cy="658.5" r="398.5"/>
<circle class="st2" cx="763.5" cy="398.5" r="398.5"/>
<path class="st3" d="M121.5,639h36v310.5h-36V639z"/>
<path class="st4" d="M653.7,84h368v384h-368V84z"/>
<g>
	<g>
		<defs>
			<rect id="SVGID_1_" x="653.7" y="84" width="368" height="384"/>
		</defs>
		<clipPath id="SVGID_2_">
			<use xlink:href="#SVGID_1_"  style="overflow:visible;"/>
		</clipPath>
		<g class="st5">
			<path class="st3" d="M956.7,260h106v246h-106L956.7,260z"/>
			
				<ellipse transform="matrix(9.025838e-02 -0.9959 0.9959 9.025838e-02 488.3036 1030.4515)" class="st6" cx="808.2" cy="247.9" rx="155" ry="253.5"/>
			<ellipse transform="matrix(0.866 -0.5 0.5 0.866 80.358 469.0892)" class="st7" cx="915.5" cy="84.6" rx="155" ry="253.5"/>
		</g>
	</g>
</g>
<path class="st8" d="M654,84.2h368v384H654V84.2z"/>
<path class="st8" d="M653.7,276h367"/>
<path class="st9" d="M624.3,461h427v43h-427L624.3,461z"/>
<path class="st3" d="M1084.5,639h36v310.5h-36V639z"/>
<path class="st6" d="M1030,500.7c-5.1-6.2-19.2-3.1-31.6,7.1c-4.9,4-8.7,8.4-11.3,12.7c-2.6-4.3-6.5-8.7-11.3-12.7
	c-12.4-10.1-26.6-13.3-31.6-7.1c-5.1,6.2,0.9,19.4,13.3,29.6c11.1,9,23.5,12.5,29.7,8.7c6.2,3.7,18.6,0.3,29.7-8.7
	C1029.1,520.1,1035,506.9,1030,500.7L1030,500.7z"/>
<ellipse class="st10" cx="987.5" cy="513.5" rx="13.5" ry="21.5"/>
<path class="st11" d="M1041,563.5c0,34-25.7,61.5-57.5,61.5S926,597.5,926,563.5s25.7-31.5,57.5-31.5S1041,529.5,1041,563.5z"/>
<path class="st12" d="M417,342h430v260H417V342z"/>
<path class="st13" d="M283.5,517c-4.6,0-8.9,2-12.5,5.6V498H167v104h104v-24.6c3.6,3.5,7.9,5.6,12.5,5.6c12.4,0,22.5-14.8,22.5-33
	S295.9,517,283.5,517z M283.5,566.7c-6.4,0-11.5-7.6-11.5-16.9s5.1-16.9,11.5-16.9s11.5,7.6,11.5,16.9S289.9,566.7,283.5,566.7z"/>
<path class="st14" d="M437,363h387v203H437V363z"/>
<path class="st15" d="M340,578h534v25H340V578z"/>
<path class="st16" d="M340,592h534v13H340V592z"/>
<path class="st17" d="M1149,658H99c-6.6,0-12-5.4-12-12v-32c0-6.6,5.4-12,12-12h1050c6.6,0,12,5.4,12,12v32
	C1161,652.6,1155.6,658,1149,658z"/>
<g>
	<g>
		<defs>
			<rect id="SVGID_3_" x="437" y="363" width="387" height="203"/>
		</defs>
		<clipPath id="SVGID_4_">
			<use xlink:href="#SVGID_3_"  style="overflow:visible;"/>
		</clipPath>
		<g class="st18">
			<line class="st19" x1="227.8" y1="570" x2="450" y2="347.8"/>
			<line class="st19" x1="229.8" y1="570" x2="452" y2="347.8"/>
			<line class="st19" x1="231.8" y1="570" x2="454" y2="347.8"/>
			<line class="st19" x1="233.8" y1="570" x2="456" y2="347.8"/>
			<line class="st19" x1="235.8" y1="570" x2="458" y2="347.8"/>
			<line class="st19" x1="237.8" y1="570" x2="460" y2="347.8"/>
			<line class="st19" x1="239.8" y1="570" x2="462" y2="347.8"/>
			<line class="st19" x1="241.8" y1="570" x2="464" y2="347.8"/>
			<line class="st19" x1="243.8" y1="570" x2="466" y2="347.8"/>
			<line class="st19" x1="245.8" y1="570" x2="468" y2="347.8"/>
			<line class="st19" x1="247.8" y1="570" x2="470" y2="347.8"/>
			<line class="st19" x1="249.8" y1="570" x2="472" y2="347.8"/>
			<line class="st19" x1="251.8" y1="570" x2="474" y2="347.8"/>
			<line class="st19" x1="253.8" y1="570" x2="476" y2="347.8"/>
			<line class="st19" x1="255.8" y1="570" x2="478" y2="347.8"/>
			<line class="st19" x1="257.8" y1="570" x2="480" y2="347.8"/>
			<line class="st19" x1="259.8" y1="570" x2="482" y2="347.8"/>
			<line class="st19" x1="261.8" y1="570" x2="484" y2="347.8"/>
			<line class="st19" x1="263.8" y1="570" x2="486" y2="347.8"/>
			<line class="st19" x1="265.8" y1="570" x2="488" y2="347.8"/>
			<line class="st19" x1="267.8" y1="570" x2="490" y2="347.8"/>
			<line class="st19" x1="269.8" y1="570" x2="492" y2="347.8"/>
			<line class="st19" x1="271.8" y1="570" x2="494" y2="347.8"/>
			<line class="st19" x1="273.8" y1="570" x2="496" y2="347.8"/>
			<line class="st19" x1="275.8" y1="570" x2="498" y2="347.8"/>
			<line class="st19" x1="277.8" y1="570" x2="500" y2="347.8"/>
			<line class="st19" x1="279.8" y1="570" x2="502" y2="347.8"/>
			<line class="st19" x1="281.8" y1="570" x2="504" y2="347.8"/>
			<line class="st19" x1="283.8" y1="570" x2="506" y2="347.8"/>
			<line class="st19" x1="285.8" y1="570" x2="508" y2="347.8"/>
			<line class="st19" x1="287.8" y1="570" x2="510" y2="347.8"/>
			<line class="st19" x1="289.8" y1="570" x2="512" y2="347.8"/>
			<line class="st19" x1="291.8" y1="570" x2="514" y2="347.8"/>
			<line class="st19" x1="293.8" y1="570" x2="516" y2="347.8"/>
			<line class="st19" x1="295.8" y1="570" x2="518" y2="347.8"/>
			<line class="st19" x1="297.8" y1="570" x2="520" y2="347.8"/>
			<line class="st19" x1="299.8" y1="570" x2="522" y2="347.8"/>
			<line class="st19" x1="301.8" y1="570" x2="524" y2="347.8"/>
			<line class="st19" x1="303.8" y1="570" x2="526" y2="347.8"/>
			<line class="st19" x1="305.8" y1="570" x2="528" y2="347.8"/>
			<line class="st19" x1="307.8" y1="570" x2="530" y2="347.8"/>
			<line class="st19" x1="309.8" y1="570" x2="532" y2="347.8"/>
			<line class="st19" x1="311.8" y1="570" x2="534" y2="347.8"/>
			<line class="st19" x1="313.8" y1="570" x2="536" y2="347.8"/>
			<line class="st19" x1="315.8" y1="570" x2="538" y2="347.8"/>
			<line class="st19" x1="317.8" y1="570" x2="540" y2="347.8"/>
			<line class="st19" x1="319.8" y1="570" x2="542" y2="347.8"/>
			<line class="st19" x1="321.8" y1="570" x2="544" y2="347.8"/>
			<line class="st19" x1="323.8" y1="570" x2="546" y2="347.8"/>
			<line class="st19" x1="325.8" y1="570" x2="548" y2="347.8"/>
			<line class="st19" x1="327.8" y1="570" x2="550" y2="347.8"/>
			<line class="st19" x1="329.8" y1="570" x2="552" y2="347.8"/>
			<line class="st19" x1="331.8" y1="570" x2="554" y2="347.8"/>
			<line class="st19" x1="333.8" y1="570" x2="556" y2="347.8"/>
			<line class="st19" x1="335.8" y1="570" x2="558" y2="347.8"/>
			<line class="st19" x1="337.8" y1="570" x2="560" y2="347.8"/>
			<line class="st19" x1="339.8" y1="570" x2="562" y2="347.8"/>
			<line class="st19" x1="341.8" y1="570" x2="564" y2="347.8"/>
			<line class="st19" x1="343.8" y1="570" x2="566" y2="347.8"/>
			<line class="st19" x1="345.8" y1="570" x2="568" y2="347.8"/>
			<line class="st19" x1="347.8" y1="570" x2="570" y2="347.8"/>
			<line class="st19" x1="349.8" y1="570" x2="572" y2="347.8"/>
			<line class="st19" x1="351.8" y1="570" x2="574" y2="347.8"/>
			<line class="st19" x1="353.8" y1="570" x2="576" y2="347.8"/>
			<line class="st19" x1="355.8" y1="570" x2="578" y2="347.8"/>
			<line class="st19" x1="357.8" y1="570" x2="580" y2="347.8"/>
			<line class="st19" x1="359.8" y1="570" x2="582" y2="347.8"/>
			<line class="st19" x1="361.8" y1="570" x2="584" y2="347.8"/>
			<line class="st19" x1="363.8" y1="570" x2="586" y2="347.8"/>
			<line class="st19" x1="365.8" y1="570" x2="588" y2="347.8"/>
			<line class="st19" x1="367.8" y1="570" x2="590" y2="347.8"/>
			<line class="st19" x1="369.8" y1="570" x2="592" y2="347.8"/>
			<line class="st19" x1="371.8" y1="570" x2="594" y2="347.8"/>
			<line class="st19" x1="373.8" y1="570" x2="596" y2="347.8"/>
			<line class="st19" x1="375.8" y1="570" x2="598" y2="347.8"/>
			<line class="st19" x1="377.8" y1="570" x2="600" y2="347.8"/>
			<line class="st19" x1="379.8" y1="570" x2="602" y2="347.8"/>
			<line class="st19" x1="381.8" y1="570" x2="604" y2="347.8"/>
			<line class="st19" x1="383.8" y1="570" x2="606" y2="347.8"/>
			<line class="st19" x1="385.8" y1="570" x2="608" y2="347.8"/>
			<line class="st19" x1="387.8" y1="570" x2="610" y2="347.8"/>
			<line class="st19" x1="389.8" y1="570" x2="612" y2="347.8"/>
			<line class="st19" x1="391.8" y1="570" x2="614" y2="347.8"/>
			<line class="st19" x1="393.8" y1="570" x2="616" y2="347.8"/>
			<line class="st19" x1="395.8" y1="570" x2="618" y2="347.8"/>
			<line class="st19" x1="397.8" y1="570" x2="620" y2="347.8"/>
			<line class="st19" x1="399.8" y1="570" x2="622" y2="347.8"/>
			<line class="st19" x1="401.8" y1="570" x2="624" y2="347.8"/>
			<line class="st19" x1="403.8" y1="570" x2="626" y2="347.8"/>
			<line class="st19" x1="405.8" y1="570" x2="628" y2="347.8"/>
			<line class="st19" x1="407.8" y1="570" x2="630" y2="347.8"/>
			<line class="st19" x1="409.8" y1="570" x2="632" y2="347.8"/>
			<line class="st19" x1="411.8" y1="570" x2="634" y2="347.8"/>
			<line class="st19" x1="413.8" y1="570" x2="636" y2="347.8"/>
			<line class="st19" x1="415.8" y1="570" x2="638" y2="347.8"/>
			<line class="st19" x1="417.8" y1="570" x2="640" y2="347.8"/>
			<line class="st19" x1="419.8" y1="570" x2="642" y2="347.8"/>
			<line class="st19" x1="421.8" y1="570" x2="644" y2="347.8"/>
			<line class="st19" x1="423.8" y1="570" x2="646" y2="347.8"/>
			<line class="st19" x1="425.8" y1="570" x2="648" y2="347.8"/>
			<line class="st19" x1="427.8" y1="570" x2="650" y2="347.8"/>
			<line class="st19" x1="429.8" y1="570" x2="652" y2="347.8"/>
			<line class="st19" x1="431.8" y1="570" x2="654" y2="347.8"/>
			<line class="st19" x1="433.8" y1="570" x2="656" y2="347.8"/>
			<line class="st19" x1="435.8" y1="570" x2="658" y2="347.8"/>
			<line class="st19" x1="437.8" y1="570" x2="660" y2="347.8"/>
			<line class="st19" x1="439.8" y1="570" x2="662" y2="347.8"/>
			<line class="st19" x1="441.8" y1="570" x2="664" y2="347.8"/>
			<line class="st19" x1="443.8" y1="570" x2="666" y2="347.8"/>
			<line class="st19" x1="445.8" y1="570" x2="668" y2="347.8"/>
			<line class="st19" x1="447.8" y1="570" x2="670" y2="347.8"/>
			<line class="st19" x1="449.8" y1="570" x2="672" y2="347.8"/>
			<line class="st19" x1="451.8" y1="570" x2="674" y2="347.8"/>
			<line class="st19" x1="453.8" y1="570" x2="676" y2="347.8"/>
			<line class="st19" x1="455.8" y1="570" x2="678" y2="347.8"/>
			<line class="st19" x1="457.8" y1="570" x2="680" y2="347.8"/>
			<line class="st19" x1="459.8" y1="570" x2="682" y2="347.8"/>
			<line class="st19" x1="461.8" y1="570" x2="684" y2="347.8"/>
			<line class="st19" x1="463.8" y1="570" x2="686" y2="347.8"/>
			<line class="st19" x1="465.8" y1="570" x2="688" y2="347.8"/>
			<line class="st19" x1="467.8" y1="570" x2="690" y2="347.8"/>
			<line class="st19" x1="469.8" y1="570" x2="692" y2="347.8"/>
			<line class="st19" x1="471.8" y1="570" x2="694" y2="347.8"/>
			<line class="st19" x1="473.8" y1="570" x2="696" y2="347.8"/>
			<line class="st19" x1="475.8" y1="570" x2="698" y2="347.8"/>
			<line class="st19" x1="477.8" y1="570" x2="700" y2="347.8"/>
			<line class="st19" x1="479.8" y1="570" x2="702" y2="347.8"/>
			<line class="st19" x1="481.8" y1="570" x2="704" y2="347.8"/>
			<line class="st19" x1="483.8" y1="570" x2="706" y2="347.8"/>
			<line class="st19" x1="485.8" y1="570" x2="708" y2="347.8"/>
			<line class="st19" x1="487.8" y1="570" x2="710" y2="347.8"/>
			<line class="st19" x1="489.8" y1="570" x2="712" y2="347.8"/>
			<line class="st19" x1="491.8" y1="570" x2="714" y2="347.8"/>
			<line class="st19" x1="493.8" y1="570" x2="716" y2="347.8"/>
			<line class="st19" x1="495.8" y1="570" x2="718" y2="347.8"/>
			<line class="st19" x1="497.8" y1="570" x2="720" y2="347.8"/>
			<line class="st19" x1="499.8" y1="570" x2="722" y2="347.8"/>
			<line class="st19" x1="501.8" y1="570" x2="724" y2="347.8"/>
			<line class="st19" x1="503.8" y1="570" x2="726" y2="347.8"/>
			<line class="st19" x1="505.8" y1="570" x2="728" y2="347.8"/>
			<line class="st19" x1="507.8" y1="570" x2="730" y2="347.8"/>
			<line class="st19" x1="509.8" y1="570" x2="732" y2="347.8"/>
			<line class="st19" x1="511.8" y1="570" x2="734" y2="347.8"/>
			<line class="st19" x1="513.8" y1="570" x2="736" y2="347.8"/>
			<line class="st19" x1="515.8" y1="570" x2="738" y2="347.8"/>
			<line class="st19" x1="517.8" y1="570" x2="740" y2="347.8"/>
			<line class="st19" x1="519.8" y1="570" x2="742" y2="347.8"/>
			<line class="st19" x1="521.8" y1="570" x2="744" y2="347.8"/>
			<line class="st19" x1="523.8" y1="570" x2="746" y2="347.8"/>
			<line class="st19" x1="525.8" y1="570" x2="748" y2="347.8"/>
			<line class="st19" x1="527.8" y1="570" x2="750" y2="347.8"/>
			<line class="st19" x1="529.8" y1="570" x2="752" y2="347.8"/>
			<line class="st19" x1="531.8" y1="570" x2="754" y2="347.8"/>
			<line class="st19" x1="533.8" y1="570" x2="756" y2="347.8"/>
			<line class="st19" x1="535.8" y1="570" x2="758" y2="347.8"/>
			<line class="st19" x1="537.8" y1="570" x2="760" y2="347.8"/>
			<line class="st19" x1="539.8" y1="570" x2="762" y2="347.8"/>
			<line class="st19" x1="541.8" y1="570" x2="764" y2="347.8"/>
			<line class="st19" x1="543.8" y1="570" x2="766" y2="347.8"/>
			<line class="st19" x1="545.8" y1="570" x2="768" y2="347.8"/>
			<line class="st19" x1="547.8" y1="570" x2="770" y2="347.8"/>
			<line class="st19" x1="549.8" y1="570" x2="772" y2="347.8"/>
			<line class="st19" x1="551.8" y1="570" x2="774" y2="347.8"/>
			<line class="st19" x1="553.8" y1="570" x2="776" y2="347.8"/>
			<line class="st19" x1="555.8" y1="570" x2="778" y2="347.8"/>
			<line class="st19" x1="557.8" y1="570" x2="780" y2="347.8"/>
			<line class="st19" x1="559.8" y1="570" x2="782" y2="347.8"/>
			<line class="st19" x1="561.8" y1="570" x2="784" y2="347.8"/>
			<line class="st19" x1="563.8" y1="570" x2="786" y2="347.8"/>
			<line class="st19" x1="565.8" y1="570" x2="788" y2="347.8"/>
			<line class="st19" x1="567.8" y1="570" x2="790" y2="347.8"/>
			<line class="st19" x1="569.8" y1="570" x2="792" y2="347.8"/>
			<line class="st19" x1="571.8" y1="570" x2="794" y2="347.8"/>
			<line class="st19" x1="573.8" y1="570" x2="796" y2="347.8"/>
			<line class="st19" x1="575.8" y1="570" x2="798" y2="347.8"/>
			<line class="st19" x1="577.8" y1="570" x2="800" y2="347.8"/>
			<line class="st19" x1="579.8" y1="570" x2="802" y2="347.8"/>
			<line class="st19" x1="581.8" y1="570" x2="804" y2="347.8"/>
			<line class="st19" x1="583.8" y1="570" x2="806" y2="347.8"/>
			<line class="st19" x1="585.8" y1="570" x2="808" y2="347.8"/>
			<line class="st19" x1="587.8" y1="570" x2="810" y2="347.8"/>
			<line class="st19" x1="589.8" y1="570" x2="812" y2="347.8"/>
			<line class="st19" x1="591.8" y1="570" x2="814" y2="347.8"/>
			<line class="st19" x1="593.8" y1="570" x2="816" y2="347.8"/>
			<line class="st19" x1="595.8" y1="570" x2="818" y2="347.8"/>
			<line class="st19" x1="597.8" y1="570" x2="820" y2="347.8"/>
			<line class="st19" x1="599.8" y1="570" x2="822" y2="347.8"/>
			<line class="st19" x1="601.8" y1="570" x2="824" y2="347.8"/>
			<line class="st19" x1="603.8" y1="570" x2="826" y2="347.8"/>
			<line class="st19" x1="605.8" y1="570" x2="828" y2="347.8"/>
			<line class="st19" x1="607.8" y1="570" x2="830" y2="347.8"/>
			<line class="st19" x1="609.8" y1="570" x2="832" y2="347.8"/>
			<line class="st19" x1="611.8" y1="570" x2="834" y2="347.8"/>
			<line class="st19" x1="613.8" y1="570" x2="836" y2="347.8"/>
			<line class="st19" x1="615.8" y1="570" x2="838" y2="347.8"/>
			<line class="st19" x1="617.8" y1="570" x2="840" y2="347.8"/>
			<line class="st19" x1="619.8" y1="570" x2="842" y2="347.8"/>
			<line class="st19" x1="621.8" y1="570" x2="844" y2="347.8"/>
			<line class="st19" x1="623.8" y1="570" x2="846" y2="347.8"/>
			<line class="st19" x1="625.8" y1="570" x2="848" y2="347.8"/>
			<line class="st19" x1="627.8" y1="570" x2="850" y2="347.8"/>
			<line class="st19" x1="629.8" y1="570" x2="852" y2="347.8"/>
			<line class="st19" x1="631.8" y1="570" x2="854" y2="347.8"/>
			<line class="st19" x1="633.8" y1="570" x2="856" y2="347.8"/>
			<line class="st19" x1="635.8" y1="570" x2="858" y2="347.8"/>
			<line class="st19" x1="637.8" y1="570" x2="860" y2="347.8"/>
			<line class="st19" x1="639.8" y1="570" x2="862" y2="347.8"/>
			<line class="st19" x1="641.8" y1="570" x2="864" y2="347.8"/>
			<line class="st19" x1="643.8" y1="570" x2="866" y2="347.8"/>
			<line class="st19" x1="645.8" y1="570" x2="868" y2="347.8"/>
			<line class="st19" x1="647.8" y1="570" x2="870" y2="347.8"/>
			<line class="st19" x1="649.8" y1="570" x2="872" y2="347.8"/>
			<line class="st19" x1="651.8" y1="570" x2="874" y2="347.8"/>
			<line class="st19" x1="653.8" y1="570" x2="876" y2="347.8"/>
			<line class="st19" x1="655.8" y1="570" x2="878" y2="347.8"/>
			<line class="st19" x1="657.8" y1="570" x2="880" y2="347.8"/>
			<line class="st19" x1="659.8" y1="570" x2="882" y2="347.8"/>
			<line class="st19" x1="661.8" y1="570" x2="884" y2="347.8"/>
			<line class="st19" x1="663.8" y1="570" x2="886" y2="347.8"/>
			<line class="st19" x1="665.8" y1="570" x2="888" y2="347.8"/>
			<line class="st19" x1="667.8" y1="570" x2="890" y2="347.8"/>
			<line class="st19" x1="669.8" y1="570" x2="892" y2="347.8"/>
			<line class="st19" x1="671.8" y1="570" x2="894" y2="347.8"/>
			<line class="st19" x1="673.8" y1="570" x2="896" y2="347.8"/>
			<line class="st19" x1="675.8" y1="570" x2="898" y2="347.8"/>
			<line class="st19" x1="677.8" y1="570" x2="900" y2="347.8"/>
			<line class="st19" x1="679.8" y1="570" x2="902" y2="347.8"/>
			<line class="st19" x1="681.8" y1="570" x2="904" y2="347.8"/>
			<line class="st19" x1="683.8" y1="570" x2="906" y2="347.8"/>
			<line class="st19" x1="685.8" y1="570" x2="908" y2="347.8"/>
			<line class="st19" x1="687.8" y1="570" x2="910" y2="347.8"/>
			<line class="st19" x1="689.8" y1="570" x2="912" y2="347.8"/>
			<line class="st19" x1="691.8" y1="570" x2="914" y2="347.8"/>
			<line class="st19" x1="693.8" y1="570" x2="916" y2="347.8"/>
			<line class="st19" x1="695.8" y1="570" x2="918" y2="347.8"/>
			<line class="st19" x1="697.8" y1="570" x2="920" y2="347.8"/>
			<line class="st19" x1="699.8" y1="570" x2="922" y2="347.8"/>
			<line class="st19" x1="701.8" y1="570" x2="924" y2="347.8"/>
			<line class="st19" x1="703.8" y1="570" x2="926" y2="347.8"/>
			<line class="st19" x1="705.8" y1="570" x2="928" y2="347.8"/>
			<line class="st19" x1="707.8" y1="570" x2="930" y2="347.8"/>
			<line class="st19" x1="709.8" y1="570" x2="932" y2="347.8"/>
			<line class="st19" x1="711.8" y1="570" x2="934" y2="347.8"/>
			<line class="st19" x1="713.8" y1="570" x2="936" y2="347.8"/>
			<line class="st19" x1="715.8" y1="570" x2="938" y2="347.8"/>
			<line class="st19" x1="717.8" y1="570" x2="940" y2="347.8"/>
			<line class="st19" x1="719.8" y1="570" x2="942" y2="347.8"/>
			<line class="st19" x1="721.8" y1="570" x2="944" y2="347.8"/>
			<line class="st19" x1="723.8" y1="570" x2="946" y2="347.8"/>
			<line class="st19" x1="725.8" y1="570" x2="948" y2="347.8"/>
			<line class="st19" x1="727.8" y1="570" x2="950" y2="347.8"/>
			<line class="st19" x1="729.8" y1="570" x2="952" y2="347.8"/>
			<line class="st19" x1="731.8" y1="570" x2="954" y2="347.8"/>
			<line class="st19" x1="733.8" y1="570" x2="956" y2="347.8"/>
			<line class="st19" x1="735.8" y1="570" x2="958" y2="347.8"/>
			<line class="st19" x1="737.8" y1="570" x2="960" y2="347.8"/>
			<line class="st19" x1="739.8" y1="570" x2="962" y2="347.8"/>
			<line class="st19" x1="741.8" y1="570" x2="964" y2="347.8"/>
			<line class="st19" x1="743.8" y1="570" x2="966" y2="347.8"/>
			<line class="st19" x1="745.8" y1="570" x2="968" y2="347.8"/>
			<line class="st19" x1="747.8" y1="570" x2="970" y2="347.8"/>
			<line class="st19" x1="749.8" y1="570" x2="972" y2="347.8"/>
			<line class="st19" x1="751.8" y1="570" x2="974" y2="347.8"/>
			<line class="st19" x1="753.8" y1="570" x2="976" y2="347.8"/>
			<line class="st19" x1="755.8" y1="570" x2="978" y2="347.8"/>
			<line class="st19" x1="757.8" y1="570" x2="980.1" y2="347.8"/>
			<line class="st19" x1="759.9" y1="570" x2="982.1" y2="347.8"/>
			<line class="st19" x1="761.9" y1="570" x2="984.2" y2="347.8"/>
			<line class="st19" x1="764" y1="570" x2="986.2" y2="347.8"/>
			<line class="st19" x1="766.1" y1="570" x2="988.3" y2="347.8"/>
			<line class="st19" x1="768.1" y1="570" x2="990.4" y2="347.8"/>
			<line class="st19" x1="770.2" y1="570" x2="992.4" y2="347.8"/>
			<line class="st19" x1="772.2" y1="570" x2="994.5" y2="347.8"/>
			<line class="st19" x1="774.3" y1="570" x2="996.6" y2="347.8"/>
			<line class="st19" x1="776.4" y1="570" x2="998.6" y2="347.8"/>
			<line class="st19" x1="778.4" y1="570" x2="1000.7" y2="347.8"/>
			<line class="st19" x1="780.5" y1="570" x2="1002.8" y2="347.8"/>
			<line class="st19" x1="782.6" y1="570" x2="1004.8" y2="347.8"/>
			<line class="st19" x1="784.6" y1="570" x2="1006.9" y2="347.8"/>
			<line class="st19" x1="786.7" y1="570" x2="1008.9" y2="347.8"/>
			<line class="st19" x1="788.8" y1="570" x2="1011" y2="347.8"/>
			<line class="st19" x1="790.8" y1="570" x2="1013.1" y2="347.8"/>
			<line class="st19" x1="792.9" y1="570" x2="1015.1" y2="347.8"/>
			<line class="st19" x1="794.9" y1="570" x2="1017.2" y2="347.8"/>
			<line class="st19" x1="797" y1="570" x2="1019.2" y2="347.8"/>
			<line class="st19" x1="799.1" y1="570" x2="1021.3" y2="347.8"/>
			<line class="st19" x1="801.1" y1="570" x2="1023.4" y2="347.8"/>
			<line class="st19" x1="803.2" y1="570" x2="1025.4" y2="347.8"/>
			<line class="st19" x1="805.2" y1="570" x2="1027.5" y2="347.8"/>
			<line class="st19" x1="807.3" y1="570" x2="1029.6" y2="347.8"/>
			<line class="st19" x1="809.4" y1="570" x2="1031.6" y2="347.8"/>
			<line class="st19" x1="811.4" y1="570" x2="1033.7" y2="347.8"/>
			<line class="st19" x1="813.5" y1="570" x2="1035.8" y2="347.8"/>
			<line class="st19" x1="815.6" y1="570" x2="1037.8" y2="347.8"/>
			<line class="st19" x1="817.6" y1="570" x2="1039.9" y2="347.8"/>
			<line class="st19" x1="819.7" y1="570" x2="1041.9" y2="347.8"/>
			<line class="st19" x1="821.8" y1="570" x2="1044" y2="347.8"/>
			<line class="st19" x1="823.8" y1="570" x2="1046.1" y2="347.8"/>
			<line class="st19" x1="825.9" y1="570" x2="1048.1" y2="347.8"/>
			<line class="st19" x1="827.9" y1="570" x2="1050.2" y2="347.8"/>
		</g>
	</g>
</g>
</svg>
